<svg xmlns="http://www.w3.org/2000/svg" width="1920" height="756" viewBox="0 0 1920 756" fill="none">
<rect x="887.029" y="188.699" width="13.3186" height="194.452" transform="rotate(-161.364 887.029 188.699)" fill="#089ed1"/>
<rect width="3.02842" height="44.2149" transform="matrix(-0.866025 0.5 0.5 0.866025 1453.3 191.991)" fill="#089ed1"/>
<rect x="885.893" y="632.027" width="5.25279" height="76.6908" transform="rotate(-30 885.893 632.027)" fill="#089ed1"/>
<path d="M1455.55 664.857L1506.37 715.684L1436.94 734.288L1455.55 664.857Z" fill="#089ed1"/>
<path d="M689.534 500.193L707.288 469.443L725.041 500.193L689.534 500.193Z" stroke="#089ed1" stroke-width="6" fill="#089ed1"/>
<circle r="4.5" transform="matrix(-1 8.74228e-08 8.74228e-08 1 1338.29 182.943)" fill="#089ed1"/>
<path d="M1745.74 113.445L1722.9 76.8348L1766.03 75.3566L1745.74 113.445Z" fill="#089ed1"/>
<path d="M1843.67 400.278L1819.43 426.23L1809.07 392.268L1843.67 400.278Z" stroke="#089ed1" stroke-width="6" fill="#089ed1"/>
<circle r="4.5" transform="matrix(0.974224 0.225581 0.225581 -0.974224 1860.07 653.004)" fill="#089ed1"/>
<circle cx="167.602" cy="576.482" r="41.8678" transform="rotate(76.2009 167.602 576.482)" stroke="#089ed1" stroke-width="3" fill="#089ed1"/>
<path d="M473.502 325.414L443.975 324.795L458.203 350.675L473.502 325.414Z" fill="#089ed1"/>
<path d="M152.729 295.1L118.632 285.193L144.26 260.618L152.729 295.1Z" stroke="#089ed1" stroke-width="6" fill="#089ed1"/>
</svg>