<svg xmlns="http://www.w3.org/2000/svg" width="1920" height="716" viewBox="0 0 1920 716" fill="none">
<mask id="mask0" mask-type="alpha" maskUnits="userSpaceOnUse" x="0" y="0" width="1920" height="716" fill="#089ed1">
<rect width="1920" height="716" fill="#089ed1"/>
</mask>
<g mask="url(#mask0)">
<rect width="2.40275" height="35.0801" transform="matrix(-0.534045 -0.845456 -0.845456 0.534045 1044.47 636.649)" fill="#089ed1"/>
<g filter="url(#filter0_d)">
<path d="M569.413 112.837L546.162 89.5867L577.923 81.0765L569.413 112.837Z" fill="#089ed1"/>
</g>
<circle cx="91.7074" cy="218.974" r="27.0381" transform="rotate(-166.963 91.7074 218.974)" stroke="#089ed1" stroke-width="3" fill="#089ed1"/>
<path d="M285.628 643.047L292.83 654.589L279.234 655.055L285.628 643.047Z" fill="#089ed1"/>
<circle cx="1763.19" cy="162.961" r="26.9591" transform="rotate(-103.799 1763.19 162.961)" stroke="#089ed1" stroke-width="3" fill="#089ed1"/>
<path d="M1858.06 444.343L1892.16 454.25L1866.53 478.826L1858.06 444.343Z" stroke="#089ed1" stroke-width="6" fill="#089ed1"/>
<circle r="2.5" transform="matrix(1 0 0 -1 1344.5 57.4999)" fill="#089ed1"/>
<circle r="2.5" transform="matrix(1 0 0 -1 1354.5 57.4999)" fill="#089ed1"/>
<circle r="2.5" transform="matrix(1 0 0 -1 1364.5 57.4999)" fill="#089ed1"/>
<circle r="2.5" transform="matrix(1 0 0 -1 1374.5 57.4999)" fill="#089ed1"/>
<circle r="2.5" transform="matrix(1 0 0 -1 1384.5 57.4999)" fill="#089ed1"/>
<circle r="2.5" transform="matrix(1 0 0 -1 1394.5 57.4999)" fill="#089ed1"/>
<circle r="2.5" transform="matrix(1 0 0 -1 1344.5 67.4999)" fill="#089ed1"/>
<circle r="2.5" transform="matrix(1 0 0 -1 1354.5 67.4999)" fill="#089ed1"/>
<circle r="2.5" transform="matrix(1 0 0 -1 1364.5 67.4999)" fill="#089ed1"/>
<circle r="2.5" transform="matrix(1 0 0 -1 1374.5 67.4999)" fill="#089ed1"/>
<circle r="2.5" transform="matrix(1 0 0 -1 1384.5 67.4999)" fill="#089ed1"/>
<circle r="2.5" transform="matrix(1 0 0 -1 1394.5 67.4999)" fill="#089ed1"/>
<circle r="2.5" transform="matrix(1 0 0 -1 1344.5 77.4999)" fill="#089ed1"/>
<circle r="2.5" transform="matrix(1 0 0 -1 1354.5 77.4999)" fill="#089ed1"/>
<circle r="2.5" transform="matrix(1 0 0 -1 1364.5 77.4999)" fill="#089ed1"/>
<circle r="2.5" transform="matrix(1 0 0 -1 1374.5 77.4999)" fill="#089ed1"/>
<circle r="2.5" transform="matrix(1 0 0 -1 1384.5 77.4999)" fill="#089ed1"/>
<circle r="2.5" transform="matrix(1 0 0 -1 1394.5 77.4999)" fill="#089ed1"/>
<circle r="2.5" transform="matrix(1 0 0 -1 1344.5 87.4999)" fill="#089ed1"/>
<circle r="2.5" transform="matrix(1 0 0 -1 1354.5 87.4999)" fill="#089ed1"/>
<circle r="2.5" transform="matrix(1 0 0 -1 1364.5 87.4999)" fill="#089ed1"/>
<circle r="2.5" transform="matrix(1 0 0 -1 1374.5 87.4999)" fill="#089ed1"/>
<circle r="2.5" transform="matrix(1 0 0 -1 1384.5 87.4999)" fill="#089ed1"/>
<circle r="2.5" transform="matrix(1 0 0 -1 1394.5 87.4999)" fill="#089ed1"/>
<circle r="2.5" transform="matrix(1 0 0 -1 1344.5 97.4999)" fill="#089ed1"/>
<circle r="2.5" transform="matrix(1 0 0 -1 1354.5 97.4999)" fill="#089ed1"/>
<circle r="2.5" transform="matrix(1 0 0 -1 1364.5 97.4999)" fill="#089ed1"/>
<circle r="2.5" transform="matrix(1 0 0 -1 1374.5 97.4999)" fill="#089ed1"/>
<circle r="2.5" transform="matrix(1 0 0 -1 1384.5 97.4999)" fill="#089ed1"/>
<circle r="2.5" transform="matrix(1 0 0 -1 1394.5 97.4999)" fill="#089ed1"/>
<circle r="2.5" transform="matrix(1 0 0 -1 1344.5 107.5)" fill="#089ed1"/>
<circle r="2.5" transform="matrix(1 0 0 -1 1354.5 107.5)" fill="#089ed1"/>
<circle r="2.5" transform="matrix(1 0 0 -1 1364.5 107.5)" fill="#089ed1"/>
<circle r="2.5" transform="matrix(1 0 0 -1 1374.5 107.5)" fill="#089ed1"/>
<circle r="2.5" transform="matrix(1 0 0 -1 1384.5 107.5)" fill="#089ed1"/>
<circle r="2.5" transform="matrix(1 0 0 -1 1394.5 107.5)" fill="#089ed1"/>
</g>
<defs fill="#089ed1">
<filter id="filter0_d" x="540.163" y="79.0765" width="51.1304" height="48.0155" filterUnits="userSpaceOnUse" color-interpolation-filters="sRGB" fill="#089ed1">
<feFlood flood-opacity="0" result="BackgroundImageFix" fill="#089ed1"/>
<feColorMatrix in="SourceAlpha" type="matrix" values="0 0 0 0 0 0 0 0 0 0 0 0 0 0 0 0 0 0 127 0" fill="#089ed1"/>
<feOffset dy="4" fill="#089ed1"/>
<feGaussianBlur stdDeviation="3" fill="#089ed1"/>
<feColorMatrix type="matrix" values="0 0 0 0 0.988235 0 0 0 0 0.741176 0 0 0 0 0.337255 0 0 0 0.3 0" fill="#089ed1"/>
<feBlend mode="normal" in2="BackgroundImageFix" result="effect1_dropShadow" fill="#089ed1"/>
<feBlend mode="normal" in="SourceGraphic" in2="effect1_dropShadow" result="shape" fill="#089ed1"/>
</filter>
</defs>
</svg>